<?xml version="1.0" encoding="UTF-8"?>
<svg id="Layer_2" data-name="Layer 2" xmlns="http://www.w3.org/2000/svg" viewBox="0 0 123.67 120.57">
  <defs>
    <style>
      .cls-1 {
        fill: #001e36;
      }

      .cls-2 {
        fill: #31a8ff;
      }
    </style>
  </defs>
  <g id="Layer_1-2" data-name="Layer 1">
    <g>
      <path class="cls-1" d="m21.87,0h79.93c12.08,0,21.87,9.82,21.87,21.93v76.72c0,12.11-9.79,21.93-21.87,21.93H21.87c-12.08,0-21.87-9.82-21.87-21.93V21.93C0,9.82,9.79,0,21.87,0Z"/>
      <path class="cls-2" d="m27.8,84.66V31.59c0-.39.17-.57.51-.57.9,0,1.73,0,2.95-.04l4-.09,4.55-.1c1.6-.03,3.18-.04,4.75-.04,4.26,0,7.85.53,10.77,1.58,2.63.88,5.03,2.33,7.02,4.24,1.69,1.66,2.99,3.66,3.83,5.86.78,2.15,1.17,4.41,1.15,6.69,0,4.43-1.04,8.09-3.11,10.97-2.09,2.88-5.03,5.07-8.41,6.26-3.53,1.3-7.46,1.74-11.78,1.74-1.23,0-2.1-.01-2.61-.04-.51-.03-1.26-.04-2.27-.04v16.57c.05.36-.2.69-.57.75-.06,0-.12,0-.19,0h-10c-.39.02-.59-.2-.59-.65Zm11.35-44.05v17.31c.72.06,1.38.09,1.99.09h2.73c2.01,0,4.01-.33,5.92-.95,1.64-.49,3.11-1.44,4.23-2.74,1.08-1.27,1.62-3.05,1.62-5.32.04-1.6-.38-3.18-1.2-4.55-.87-1.33-2.13-2.36-3.6-2.95-1.93-.75-3.98-1.11-6.05-1.04-1.33,0-2.5.01-3.52.04-1.02.03-1.72.07-2.11.13v-.02Z"/>
      <path class="cls-2" d="m98.87,54.86c-1.57-.81-3.24-1.4-4.96-1.76-1.9-.44-3.85-.66-5.8-.67-1.06-.03-2.11.1-3.13.38-.65.15-1.23.52-1.63,1.05-.27.42-.42.92-.42,1.42.02.49.19.96.5,1.34.49.57,1.08,1.04,1.75,1.38,1.19.64,2.42,1.22,3.67,1.72,2.8.94,5.47,2.21,7.97,3.8,1.7,1.07,3.1,2.55,4.09,4.31.83,1.66,1.24,3.5,1.21,5.35.04,2.44-.65,4.84-2,6.87-1.45,2.07-3.46,3.68-5.8,4.64-2.53,1.11-5.66,1.67-9.38,1.67-2.37.02-4.73-.2-7.05-.67-1.83-.34-3.6-.9-5.29-1.67-.37-.2-.59-.59-.57-1v-9.01c-.02-.18.06-.36.21-.46.15-.08.33-.07.46.04,1.99,1.18,4.14,2.05,6.4,2.56,1.99.5,4.03.77,6.09.8,1.95,0,3.38-.25,4.29-.75.85-.39,1.39-1.24,1.38-2.18-.07-.85-.53-1.62-1.25-2.09-.83-.67-2.53-1.48-5.09-2.43-2.62-.91-5.1-2.18-7.38-3.76-1.63-1.14-2.97-2.64-3.92-4.39-.82-1.65-1.24-3.47-1.21-5.31,0-2.22.6-4.4,1.75-6.3,1.31-2.08,3.19-3.73,5.42-4.76,2.44-1.23,5.5-1.84,9.17-1.84,2.15-.02,4.29.14,6.42.46,1.54.2,3.04.6,4.47,1.21.23.06.42.23.5.46.06.2.09.42.09.63v8.44c.01.2-.09.39-.25.5-.23.12-.49.12-.72,0Z"/>
    </g>
  </g>
</svg>