<?xml version="1.0" encoding="UTF-8"?>
<svg id="Layer_2" data-name="Layer 2" xmlns="http://www.w3.org/2000/svg" viewBox="0 0 123.67 120.57">
  <defs>
    <style>
      .cls-1 {
        fill: #ff9a00;
      }

      .cls-2 {
        fill: #300;
      }
    </style>
  </defs>
  <g id="Layer_1-2" data-name="Layer 1">
    <g>
      <rect class="cls-2" x="0" width="123.67" height="120.57" rx="21.9" ry="21.9"/>
      <path class="cls-1" d="m59.8,72.65h-19.25l-3.91,12.13c-.11.46-.53.77-1,.75h-9.75c-.56,0-.75-.31-.59-.92l16.68-48.03c.17-.5.34-1.07.52-1.71.22-1.11.33-2.24.33-3.38-.04-.28.16-.55.44-.59.05,0,.1,0,.14,0h13.18c.39,0,.61.14.66.42l18.76,52.86c.16.55,0,.83-.51.83h-10.84c-.37.04-.71-.2-.8-.56l-4.07-11.81Zm-16.52-10.82h13.2c-.35-1.11-.74-2.37-1.17-3.76-.43-1.39-.91-2.88-1.42-4.47l-1.51-4.76c-.5-1.59-.96-3.12-1.38-4.59-.42-1.47-.79-2.82-1.13-4.05h-.08c-.47,2.26-1.06,4.49-1.75,6.68-.78,2.51-1.58,5.07-2.38,7.69-.81,2.62-1.6,5.04-2.38,7.27h0Z"/>
      <path class="cls-1" d="m87.25,39.72c-1.71.07-3.37-.6-4.56-1.82-1.19-1.28-1.81-2.98-1.74-4.73-.06-1.73.62-3.41,1.87-4.61,1.24-1.19,2.89-1.83,4.61-1.78,1.99,0,3.56.59,4.69,1.78,1.16,1.25,1.77,2.91,1.7,4.61.07,1.75-.57,3.46-1.78,4.73-1.27,1.25-3,1.91-4.78,1.82Zm-5.84,44.47v-39.65c0-.51.22-.75.65-.75h10.03c.44,0,.65.25.65.75v39.65c0,.55-.22.83-.65.83h-9.95c-.49,0-.73-.28-.73-.83h0Z"/>
    </g>
  </g>
</svg>