<?xml version="1.0" encoding="UTF-8"?>
<svg id="Layer_2" data-name="Layer 2" xmlns="http://www.w3.org/2000/svg" viewBox="0 0 126.52 142.35">
  <defs>
    <style>
      .cls-1 {
        fill: #659ad2;
      }

      .cls-2 {
        fill: #fff;
      }

      .cls-3 {
        fill: #004482;
      }

      .cls-4 {
        fill: #00599c;
      }
    </style>
  </defs>
  <g id="Layer_1-2" data-name="Layer 1">
    <g>
      <path class="cls-4" d="m124.92,106.76c.99-1.63,1.54-3.49,1.6-5.4v-60.38c-.07-1.91-.62-3.77-1.6-5.4l-61.63,35.59,61.63,35.59Z"/>
      <path class="cls-3" d="m68.36,141.04l52.28-30.19c1.62-1.01,2.95-2.42,3.87-4.09l-61.63-35.59L1.25,106.76c.92,1.67,2.25,3.08,3.87,4.09l52.28,30.19c3.45,1.74,7.52,1.74,10.97,0Z"/>
      <path class="cls-1" d="m124.87,35.58c-.92-1.67-2.25-3.08-3.87-4.09L68.72,1.3c-3.44-1.74-7.51-1.74-10.95,0L5.48,31.49c-3.23,2.11-5.27,5.63-5.48,9.49v60.38c.07,1.91.62,3.77,1.6,5.4l61.63-35.59,61.63-35.59Z"/>
      <path class="cls-2" d="m62.88,113.35c-23.29,0-42.18-18.87-42.18-42.17,0-23.29,18.87-42.18,42.17-42.18,15.07,0,29,8.04,36.53,21.09l-18.25,10.54c-5.82-10.09-18.72-13.54-28.81-7.72-10.09,5.82-13.54,18.72-7.72,28.81,5.82,10.09,18.72,13.54,28.81,7.72,3.21-1.85,5.87-4.51,7.72-7.72l18.25,10.54c-7.55,13.02-21.46,21.06-36.52,21.09Z"/>
      <polygon class="cls-2" points="105.43 69.41 100.75 69.41 100.75 64.73 96.06 64.73 96.06 69.41 91.38 69.41 91.38 74.1 96.06 74.1 96.06 78.79 100.75 78.79 100.75 74.1 105.43 74.1 105.43 69.41"/>
      <polygon class="cls-2" points="123.01 69.41 118.32 69.41 118.32 64.73 113.63 64.73 113.63 69.41 108.95 69.41 108.95 74.1 113.63 74.1 113.63 78.79 118.32 78.79 118.32 74.1 123.01 74.1 123.01 69.41"/>
    </g>
  </g>
</svg>