<?xml version="1.0" encoding="UTF-8"?>
<svg id="Layer_2" data-name="Layer 2" xmlns="http://www.w3.org/2000/svg" viewBox="0 0 157.88 89.19">
  <defs>
    <style>
      .cls-1, .cls-2 {
        fill: #fff;
      }

      .cls-3 {
        fill: #dcdee2;
      }

      .cls-2 {
        fill-rule: evenodd;
      }

      .cls-4 {
        fill: #42210b;
      }

      .cls-5 {
        font-family: BodoniModa-Italic, 'Bodoni Moda';
        font-size: 10.49px;
        font-style: italic;
        font-variation-settings: 'wght' 400, 'opsz' 11;
      }

      .cls-6 {
        font-family: SansSerifCollection, 'Sans Serif Collection';
        font-size: 10.93px;
      }

      .cls-7 {
        fill: #efefef;
      }
    </style>
  </defs>
  <g id="Layer_1-2" data-name="Layer 1">
    <g>
      <g>
        <text class="cls-6" transform="translate(52.48 27.51)"><tspan x="0" y="0">+254797517270</tspan></text>
        <g>
          <g>
            <circle class="cls-4" cx="20.37" cy="20.37" r="20.37" transform="translate(-3.35 36.72) rotate(-79.56)"/>
            <path class="cls-1" d="m9.37,31.9l1.7-6.34c-.96-1.74-1.47-3.68-1.47-5.65,0-6.45,5.25-11.7,11.7-11.7s11.7,5.25,11.7,11.7-5.25,11.7-11.7,11.7c-1.94,0-3.85-.49-5.56-1.42l-6.37,1.71Zm6.69-4.08l.4.24c1.47.88,3.15,1.34,4.84,1.34,5.23,0,9.49-4.26,9.49-9.49s-4.26-9.49-9.49-9.49-9.49,4.26-9.49,9.49c0,1.73.48,3.43,1.39,4.92l.25.4-.95,3.54,3.56-.95Z"/>
          </g>
          <path class="cls-2" d="m25.65,21.54c-.48-.29-1.11-.61-1.68-.38-.44.18-.71.86-1,1.21-.14.18-.32.21-.54.12-1.63-.65-2.89-1.74-3.79-3.24-.15-.23-.13-.42.06-.63.27-.32.61-.68.69-1.12.07-.43-.13-.94-.31-1.32-.23-.49-.48-1.19-.98-1.47-.45-.26-1.05-.11-1.45.22-.7.57-1.03,1.46-1.02,2.34,0,.25.03.5.09.74.14.58.41,1.12.71,1.64.23.39.48.77.74,1.13.87,1.19,1.96,2.22,3.22,2.99.63.39,1.31.72,2.01.95.79.26,1.49.53,2.34.37.89-.17,1.77-.72,2.12-1.58.1-.25.16-.54.1-.8-.12-.55-.87-.88-1.32-1.15Z"/>
        </g>
      </g>
      <g>
        <text class="cls-5" transform="translate(54.64 71.08)"><tspan x="0" y="0">justkimtai@gmail.com</tspan></text>
        <g>
          <path class="cls-4" d="m41.69,68.81c0,2.75-.54,5.42-1.6,7.93-1.03,2.43-2.5,4.6-4.37,6.48-1.87,1.87-4.05,3.34-6.48,4.37-2.51,1.06-5.18,1.6-7.93,1.6s-5.42-.54-7.93-1.6c-2.43-1.03-4.6-2.5-6.48-4.37-1.87-1.87-3.34-4.05-4.37-6.48-1.06-2.51-1.6-5.18-1.6-7.93s.54-5.42,1.6-7.93c1.03-2.43,2.5-4.6,4.37-6.48,1.87-1.87,4.05-3.34,6.48-4.37,2.51-1.06,5.18-1.6,7.93-1.6s5.42.54,7.93,1.6c2.43,1.03,4.6,2.5,6.48,4.37,1.87,1.87,3.34,4.05,4.37,6.48,1.06,2.51,1.6,5.18,1.6,7.93Z"/>
          <path class="cls-7" d="m32.92,60.9c-.47-.49-1.13-.79-1.85-.79H11.57c-.73,0-1.39.3-1.85.79-.44.46-.71,1.09-.71,1.77v12.28c0,.69.27,1.31.71,1.77.47.49,1.12.79,1.85.79h19.5c.73,0,1.39-.3,1.85-.79.44-.46.71-1.09.71-1.77v-12.28c0-.69-.27-1.31-.71-1.77Z"/>
          <path class="cls-1" d="m32.27,60.9l-9.03,7.91-1.52,1.33c-.6.52-1.49.52-2.09,0l-1.52-1.33-9.03-7.91c.47-.49,1.13-.79,1.85-.79h19.5c.73,0,1.39.3,1.85.79Z"/>
          <path class="cls-3" d="m32.27,76.73c-.47.49-1.13.79-1.85.79H10.92c-.73,0-1.39-.3-1.85-.79l9.03-7.91,1.52,1.33c.6.52,1.49.52,2.09,0l1.52-1.33,9.03,7.91Z"/>
        </g>
      </g>
    </g>
  </g>
</svg>