<?xml version="1.0" encoding="UTF-8"?>
<svg id="Layer_2" data-name="Layer 2" xmlns="http://www.w3.org/2000/svg" viewBox="0 0 76.42 142.22">
  <defs>
    <style>
      .cls-1 {
        fill: #5382a1;
      }

      .cls-2 {
        fill: #e76f00;
      }
    </style>
  </defs>
  <g id="Layer_1-2" data-name="Layer 1">
    <g>
      <g>
        <path class="cls-2" d="m73.01,112.17h-.49v-.49h1.46v.49h-.49v1.46h-.49v-1.46Zm2.93,0h0l-.53,1.46h-.24l-.53-1.46h-.16v1.46h0v-1.95h.5l.47,1.38.47-1.38h.5v1.95h-.49v-1.46h.01Z"/>
        <path class="cls-1" d="m25.12,75.41s-3.73,2.17,2.65,2.9c7.73.88,11.68.76,20.19-.86,0,0,2.24,1.4,5.37,2.62-19.09,8.18-43.2-.47-28.21-4.66"/>
        <path class="cls-1" d="m22.79,64.74s-4.18,3.09,2.2,3.75c8.26.85,14.77.92,26.05-1.25,0,0,1.56,1.58,4.01,2.45-23.08,6.75-48.79.53-32.27-4.95"/>
        <path class="cls-2" d="m42.45,46.63c4.7,5.42-1.24,10.29-1.24,10.29,0,0,11.94-6.17,6.46-13.89-5.12-7.2-9.05-10.78,12.22-23.11,0,0-33.38,8.34-17.44,26.71"/>
        <path class="cls-1" d="m67.7,83.31s2.76,2.27-3.04,4.03c-11.02,3.34-45.86,4.35-55.54.13-3.48-1.51,3.05-3.61,5.1-4.06,2.14-.46,3.36-.38,3.36-.38-3.87-2.72-25.01,5.35-10.74,7.67,38.92,6.31,70.95-2.84,60.85-7.4"/>
        <path class="cls-1" d="m26.91,53.67s-17.72,4.21-6.28,5.74c4.83.65,14.47.5,23.44-.25,7.33-.62,14.7-1.93,14.7-1.93,0,0-2.59,1.11-4.46,2.38-18,4.73-52.76,2.53-42.76-2.31,8.47-4.09,15.35-3.63,15.35-3.63"/>
        <path class="cls-1" d="m58.71,71.45c18.3-9.51,9.84-18.64,3.93-17.41-1.45.3-2.09.56-2.09.56,0,0,.54-.84,1.56-1.21,11.68-4.11,20.66,12.11-3.77,18.53,0,0,.28-.25.37-.48"/>
        <path class="cls-2" d="m47.68,0s10.13,10.14-9.61,25.72c-15.83,12.5-3.61,19.63,0,27.78-9.24-8.34-16.02-15.68-11.47-22.51,6.68-10.03,25.18-14.89,21.09-30.99"/>
        <path class="cls-1" d="m28.71,97.21c17.56,1.12,44.53-.62,45.17-8.93,0,0-1.23,3.15-14.51,5.65-14.99,2.82-33.47,2.49-44.44.68,0,0,2.24,1.86,13.79,2.6"/>
        <path class="cls-2" d="m25.77,129.15c-1.66,1.44-3.41,2.24-4.98,2.24-2.24,0-3.45-1.34-3.45-3.5,0-2.33,1.3-4.04,6.5-4.04h1.93v5.36m4.38,4.87v-15.71c0-4.01-2.23-6.66-7.61-6.66-3.14,0-5.89.8-8.12,1.81l.64,2.78c1.76-.66,4.04-1.28,6.27-1.28,3.1,0,4.43,1.28,4.43,3.93v1.99h-1.55c-7.53,0-10.92,3-10.92,7.5,0,3.88,2.24,6.09,6.45,6.09,2.71,0,4.73-1.15,6.62-2.83l.34,2.39h3.44Z"/>
        <path class="cls-2" d="m45.74,134.09h-5.79l-6.88-22.4h5l4.27,13.76.95,4.14c2.16-5.99,3.69-12.06,4.45-17.9h4.86c-1.3,7.38-3.64,15.47-6.93,22.4"/>
        <path class="cls-2" d="m67.65,129.15c-1.66,1.44-3.41,2.24-4.98,2.24-2.24,0-3.45-1.34-3.45-3.5,0-2.33,1.3-4.04,6.5-4.04h1.93v5.36m4.38,4.87v-15.71c0-4.01-2.24-6.66-7.61-6.66-3.14,0-5.89.8-8.13,1.81l.64,2.78c1.76-.66,4.04-1.28,6.28-1.28,3.1,0,4.43,1.28,4.43,3.93v1.99h-1.55c-7.53,0-10.93,3-10.93,7.5,0,3.88,2.24,6.09,6.45,6.09,2.71,0,4.73-1.15,6.62-2.83l.34,2.39h3.44Z"/>
      </g>
      <path class="cls-2" d="m7.99,137.96c-1.31,1.9-3.42,3.41-5.73,4.26l-2.26-2.66c1.76-.9,3.27-2.35,3.97-3.71.61-1.2.86-2.76.86-6.47v-25.49h4.87v25.14c0,4.96-.4,6.96-1.7,8.92"/>
    </g>
  </g>
</svg>