<?xml version="1.0" encoding="UTF-8"?>
<svg id="Layer_2" data-name="Layer 2" xmlns="http://www.w3.org/2000/svg" xmlns:xlink="http://www.w3.org/1999/xlink" viewBox="0 0 125.68 36.5">
  <defs>
    <style>
      .cls-1 {
        fill: url(#linear-gradient-2);
      }

      .cls-2 {
        clip-path: url(#clippath-2);
      }

      .cls-3 {
        isolation: isolate;
        opacity: .44;
      }

      .cls-4 {
        clip-path: url(#clippath-1);
      }

      .cls-5 {
        fill: #646464;
      }

      .cls-6 {
        fill: url(#radial-gradient);
      }

      .cls-7 {
        clip-path: url(#clippath);
      }

      .cls-8 {
        fill: url(#radial-gradient-2);
      }

      .cls-9 {
        fill: none;
      }

      .cls-10 {
        clip-path: url(#clippath-3);
      }

      .cls-11 {
        mask: url(#mask);
      }

      .cls-12 {
        fill: url(#linear-gradient);
      }
    </style>
    <clipPath id="clippath">
      <path class="cls-9" d="m9.43,4.44c0-.75.6-1.36,1.33-1.36s1.33.61,1.33,1.36-.6,1.35-1.33,1.35-1.33-.6-1.33-1.35M14.66.92c-1.21,0-2.37.11-3.39.29-3,.53-3.55,1.64-3.55,3.69v2.78h6.88v.79H4.9c-2.05,0-3.85,1.23-4.41,3.57-.65,2.68-.68,4.35,0,7.15.5,2.08,1.7,3.57,3.75,3.57h2.43v-3.02c0-2.33,2.03-4.39,4.43-4.39h7.09c1.97,0,3.55-1.62,3.55-3.59v-6.73c0-1.91-1.62-3.35-3.55-3.67-1.18-.2-2.41-.29-3.59-.29-.04,0,0,0,0,0"/>
    </clipPath>
    <linearGradient id="linear-gradient" x1="-976.36" y1="-419.57" x2="-976.1" y2="-419.57" gradientTransform="translate(37738.08 77993.84) rotate(40.98) scale(81.23 81.35) skewX(.55)" gradientUnits="userSpaceOnUse">
      <stop offset="0" stop-color="#5a9fd4"/>
      <stop offset="1" stop-color="#306998"/>
    </linearGradient>
    <clipPath id="clippath-1">
      <path class="cls-9" d="m17.41,26.94c0-.74.6-1.35,1.33-1.35s1.33.6,1.33,1.35-.6,1.36-1.33,1.36-1.33-.61-1.33-1.36m5.39-18.48v3.17c0,2.44-2.07,4.5-4.43,4.5h-7.07c-1.95,0-3.57,1.66-3.57,3.6v6.75c0,1.92,1.68,3.05,3.57,3.6,2.26.66,4.43.78,7.14,0,1.8-.52,3.57-1.56,3.57-3.6v-2.69h-7.14v-1.06h10.58c2.05,0,2.82-1.43,3.53-3.57.74-2.2.71-4.32,0-7.15-.51-2.03-1.48-3.57-3.53-3.57h-2.65Z"/>
    </clipPath>
    <linearGradient id="linear-gradient-2" x1="-1016.87" y1="-415.09" x2="-1016.61" y2="-415.09" gradientTransform="translate(-9386.04 -40964.8) rotate(-124.99) scale(38.19 38.06) skewX(.52)" gradientUnits="userSpaceOnUse">
      <stop offset="0" stop-color="#ffd43b"/>
      <stop offset="1" stop-color="#ffe873"/>
    </linearGradient>
    <clipPath id="clippath-2">
      <rect class="cls-9" x="5.35" y="32.79" width="19.04" height="3.7"/>
    </clipPath>
    <clipPath id="clippath-3">
      <path class="cls-9" d="m24.34,34.69c0,1.02-4.25,1.84-9.5,1.84s-9.5-.82-9.5-1.84,4.25-1.84,9.5-1.84,9.5.82,9.5,1.84"/>
    </clipPath>
    <radialGradient id="radial-gradient" cx="-1089.33" cy="-395.31" fx="-1089.33" fy="-395.31" r=".26" gradientTransform="translate(12120.46 -7554.72) rotate(-90) scale(6.97 30.62)" gradientUnits="userSpaceOnUse">
      <stop offset="0" stop-color="#7f7f7f"/>
      <stop offset="1" stop-color="#000"/>
    </radialGradient>
    <mask id="mask" x="5.33" y="32.79" width="19.06" height="3.74" maskUnits="userSpaceOnUse">
      <rect class="cls-6" x="5.33" y="32.84" width="19" height="3.68"/>
    </mask>
    <radialGradient id="radial-gradient-2" cx="-1089.32" cy="-395.31" fx="-1089.32" fy="-395.31" r=".27" gradientTransform="translate(12120.46 -7554.72) rotate(-90) scale(6.97 30.62)" gradientUnits="userSpaceOnUse">
      <stop offset="0" stop-color="#b8b8b8"/>
      <stop offset="1" stop-color="#7f7f7f"/>
    </radialGradient>
  </defs>
  <g id="Layer_1-2" data-name="Layer 1">
    <g>
      <g>
        <path class="cls-5" d="m47.45,15.6c0-3.85-1.1-5.83-3.29-5.94-.87-.04-1.73.1-2.56.42-.66.24-1.11.47-1.34.71v9.19c1.4.88,2.65,1.29,3.74,1.23,2.3-.15,3.45-2.02,3.45-5.61m2.81.13c0,1.98-.46,3.62-1.4,4.92-1.04,1.48-2.48,2.24-4.32,2.28-1.39.04-2.82-.39-4.29-1.3v8.44l-2.38-.85V10.48c.39-.48.89-.89,1.5-1.24,1.42-.83,3.14-1.25,5.16-1.27l.03.03c1.85-.02,3.28.74,4.28,2.28.93,1.41,1.4,3.23,1.4,5.44"/>
        <path class="cls-5" d="m64.59,21.27c0,2.62-.25,4.44-.75,5.45-.5,1.01-1.46,1.82-2.87,2.42-1.14.47-2.38.73-3.71.78l-.37-1.48c1.35-.19,2.3-.39,2.85-.58,1.08-.39,1.83-.98,2.24-1.77.33-.65.49-1.88.49-3.71v-.62c-1.64.75-3.36,1.12-5.15,1.12-1.18,0-2.22-.37-3.12-1.12-1.01-.81-1.51-1.84-1.51-3.08v-9.77l2.38-.81v9.9c0,1.05.34,1.87,1.02,2.44.68.57,1.56.84,2.65.82,1.08-.02,2.24-.44,3.47-1.26v-11.51h2.38v12.8Z"/>
        <path class="cls-5" d="m73.84,22.77c-.28.02-.54.03-.78.03-1.34,0-2.38-.32-3.13-.96-.74-.64-1.12-1.52-1.12-2.65v-9.14h-1.59v-1.59h1.59v-3.94l2.38-.84v4.77h2.64v1.59h-2.64v9.09c-.12.88.12,1.51.59,1.88.41.3,2.06.52,2.06.52v1.24Z"/>
        <path class="cls-5" d="m88.12,22.48h-2.38v-9.09c0-.93-.22-1.72-.66-2.39-.51-.75-1.21-1.13-2.11-1.13-1.1,0-2.47.57-4.11,1.71v10.9h-2.38V.74l2.38-.74v9.9c1.53-1.1,3.19-1.64,5-1.64,1.26,0,2.29.42,3.07,1.26.79.84,1.18,1.88,1.18,3.13v9.84Z"/>
        <path class="cls-5" d="m100.51,15.23c0-1.48-.28-2.7-.84-3.67-.67-1.18-1.7-1.8-3.1-1.86-2.58.15-3.87,2-3.87,5.55,0,1.63.27,2.98.81,4.08.69,1.39,1.73,2.08,3.11,2.05,2.59-.02,3.89-2.07,3.89-6.14m2.58.02c0,2.11-.54,3.86-1.61,5.26-1.18,1.57-2.82,2.35-4.9,2.35s-3.68-.79-4.84-2.35c-1.05-1.4-1.58-3.15-1.58-5.26,0-1.98.57-3.64,1.71-5,1.2-1.44,2.79-2.16,4.74-2.16s3.55.72,4.78,2.16c1.14,1.36,1.71,3.02,1.71,5"/>
        <path class="cls-5" d="m116.69,22.48h-2.38v-9.61c0-1.05-.31-1.88-.94-2.47-.63-.59-1.47-.88-2.51-.85-1.11.02-2.16.39-3.16,1.1v11.84h-2.38v-12.13c1.35-.99,2.6-1.63,3.74-1.93,1.07-.28,2.02-.42,2.84-.42.56,0,1.08.05,1.58.16.92.21,1.68.61,2.25,1.19.65.64.97,1.42.97,2.32v10.8Z"/>
        <g class="cls-7">
          <polygon class="cls-12" points="-10.87 13.54 12.5 33.85 32.6 10.26 9.23 -10.04 -10.87 13.54"/>
        </g>
        <g class="cls-4">
          <polygon class="cls-1" points="40.12 23.42 22.34 -1.98 -2.78 15.95 15 41.35 40.12 23.42"/>
        </g>
      </g>
      <path class="cls-5" d="m121.18,6.35h.53v-2.64h.79v-.26h-2.38v.26h1.06v2.64Zm1.85,0h.26v-2.37l.72,2.37h.37l.75-2.36v2.36h.53v-2.91h-.5l-.86,2.49-.73-2.49h-.56v2.91"/>
      <g class="cls-3">
        <g class="cls-2">
          <g class="cls-10">
            <g class="cls-11">
              <rect class="cls-8" x="5.35" y="32.79" width="19.04" height="3.7"/>
            </g>
          </g>
        </g>
      </g>
    </g>
  </g>
</svg>