<?xml version="1.0" encoding="UTF-8"?>
<svg id="Layer_2" data-name="Layer 2" xmlns="http://www.w3.org/2000/svg" viewBox="0 0 128.35 114.51">
  <defs>
    <style>
      .cls-1 {
        fill: #61dafb;
      }
    </style>
  </defs>
  <g id="Layer_1-2" data-name="Layer 1">
    <g>
      <path class="cls-1" d="m128.35,57.37c0-8.5-10.65-16.56-26.97-21.56,3.77-16.64,2.09-29.88-5.28-34.12-1.7-.99-3.69-1.47-5.86-1.47v5.65s2.27.24,3.09.68c3.57,2.05,5.12,9.85,3.91,19.87-.29,2.47-.76,5.07-1.34,7.72-5.15-1.26-10.76-2.23-16.67-2.86-3.54-4.86-7.22-9.27-10.92-13.13,8.56-7.95,22.2-12.31,22.2-12.31V0h0c-7.23,0-16.69,5.15-26.25,14.09C54.68,5.2,45.21.11,37.99.11v6.04c5.42,0,13.45,4.32,21.98,12.19-3.66,3.85-7.33,8.21-10.8,13.05-5.91.63-11.51,1.6-16.64,2.88-.6-2.62-1.05-5.15-1.36-7.59-1.23-9.99.29-17.76,3.82-19.83.78-.47,1.81-.68,3.01-.68V.34h0c-2.2,0-4.19.47-5.91,1.47-7.35,4.24-9,17.45-5.21,34.04C10.6,40.86,0,48.9,0,57.37s10.65,16.56,26.97,21.56c-3.77,16.64-2.09,29.88,5.28,34.12,1.7.99,3.69,1.47,5.89,1.47,7.19,0,16.61-5.13,26.14-14.02,9.52,8.84,18.94,13.92,26.14,13.92,2.2,0,4.19-.47,5.91-1.47,7.35-4.24,9-17.45,5.21-34.04,16.22-5,26.82-13.05,26.82-21.53Zm-33.95-17.51c-.97,3.39-2.18,6.88-3.54,10.37-1.08-2.1-2.21-4.2-3.44-6.3-1.21-2.1-2.49-4.15-3.78-6.14,3.73.55,7.32,1.23,10.76,2.07Zm-12.02,27.96c-2.05,3.54-4.15,6.9-6.33,10.03-3.91.34-7.88.53-11.87.53s-7.93-.18-11.81-.5c-2.18-3.12-4.31-6.46-6.35-9.98-2-3.44-3.81-6.93-5.46-10.45,1.63-3.52,3.47-7.04,5.43-10.48,2.05-3.54,4.15-6.9,6.33-10.03,3.91-.34,7.88-.53,11.87-.53s7.93.18,11.81.5c2.18,3.12,4.31,6.46,6.35,9.98,2,3.44,3.81,6.93,5.46,10.45-1.65,3.52-3.47,7.04-5.43,10.48Zm8.48-3.41c1.42,3.52,2.63,7.04,3.62,10.45-3.44.84-7.06,1.55-10.82,2.1,1.29-2.02,2.57-4.1,3.78-6.22,1.21-2.1,2.34-4.23,3.41-6.33Zm-26.62,28.01c-2.44-2.52-4.88-5.33-7.3-8.4,2.36.11,4.78.18,7.22.18s4.91-.05,7.3-.18c-2.36,3.07-4.8,5.88-7.22,8.4Zm-19.53-15.46c-3.73-.55-7.32-1.23-10.76-2.07.97-3.39,2.18-6.88,3.54-10.37,1.08,2.1,2.21,4.2,3.44,6.3s2.49,4.15,3.78,6.14Zm19.4-54.63c2.44,2.52,4.88,5.33,7.3,8.4-2.36-.11-4.78-.18-7.22-.18s-4.91.05-7.3.18c2.36-3.07,4.8-5.88,7.22-8.4Zm-19.43,15.46c-1.29,2.02-2.57,4.1-3.78,6.22-1.21,2.1-2.34,4.2-3.41,6.3-1.42-3.52-2.63-7.04-3.62-10.45,3.44-.81,7.06-1.52,10.82-2.07Zm-23.76,32.87c-9.29-3.96-15.31-9.16-15.31-13.28s6.01-9.35,15.31-13.28c2.26-.97,4.73-1.84,7.27-2.65,1.5,5.15,3.47,10.5,5.91,15.99-2.42,5.46-4.36,10.79-5.83,15.91-2.6-.81-5.07-1.71-7.35-2.68Zm14.12,37.52c-3.57-2.05-5.12-9.85-3.91-19.87.29-2.47.76-5.07,1.34-7.72,5.15,1.26,10.76,2.23,16.67,2.86,3.54,4.86,7.22,9.27,10.92,13.13-8.56,7.95-16.59,12.31-22.05,12.31-1.18-.03-2.18-.26-2.97-.71Zm62.27-20.01c1.23,10.03-.29,17.83-3.83,19.9-.79.47-1.81.68-3.02.68-5.43,0-13.49-4.33-22.05-12.23,3.68-3.86,7.35-8.24,10.84-13.1,5.93-.63,11.55-1.6,16.7-2.89.6,2.65,1.08,5.2,1.37,7.64Zm10.11-17.51c-2.26.97-4.73,1.84-7.27,2.65-1.5-5.15-3.47-10.5-5.91-15.99,2.42-5.46,4.36-10.79,5.83-15.91,2.6.81,5.07,1.71,7.38,2.68,9.29,3.96,15.31,9.16,15.31,13.28-.03,4.12-6.04,9.35-15.33,13.28Z"/>
      <circle class="cls-1" cx="64.15" cy="57.37" r="12"/>
    </g>
  </g>
</svg>