<?xml version="1.0" encoding="UTF-8"?>
<svg id="Layer_2" data-name="Layer 2" xmlns="http://www.w3.org/2000/svg" xmlns:xlink="http://www.w3.org/1999/xlink" viewBox="0 0 318.83 350.32">
  <defs>
    <style>
      .cls-1 {
        fill: #659ad2;
      }

      .cls-2 {
        fill: url(#linear-gradient-2);
      }

      .cls-3 {
        fill: #fff;
      }

      .cls-4 {
        clip-path: url(#clippath-2);
      }

      .cls-5 {
        fill: #ff9a00;
      }

      .cls-6 {
        isolation: isolate;
        opacity: .44;
      }

      .cls-7 {
        clip-path: url(#clippath-1);
      }

      .cls-8 {
        fill: #646464;
      }

      .cls-9 {
        fill: #fcecdf;
        stroke: blue;
        stroke-miterlimit: 10;
        stroke-width: 4px;
      }

      .cls-10 {
        fill: url(#radial-gradient);
      }

      .cls-11 {
        fill: #004482;
      }

      .cls-12 {
        clip-path: url(#clippath);
      }

      .cls-13 {
        fill: url(#radial-gradient-2);
      }

      .cls-14 {
        fill: #001e36;
      }

      .cls-15 {
        fill: none;
      }

      .cls-16 {
        clip-path: url(#clippath-3);
      }

      .cls-17 {
        mask: url(#mask);
      }

      .cls-18 {
        fill: url(#linear-gradient);
      }

      .cls-19 {
        fill: #00599c;
      }

      .cls-20 {
        fill: #300;
      }

      .cls-21 {
        fill: #31a8ff;
      }
    </style>
    <clipPath id="clippath">
      <path class="cls-15" d="m22.05,59.67c0-.75.6-1.36,1.33-1.36s1.33.61,1.33,1.36-.6,1.35-1.33,1.35-1.33-.6-1.33-1.35m5.23-3.53c-1.21,0-2.37.11-3.39.29-3,.53-3.55,1.64-3.55,3.69v2.78h6.88v.79h-9.7c-2.05,0-3.85,1.23-4.41,3.57-.65,2.68-.68,4.35,0,7.15.5,2.08,1.7,3.57,3.75,3.57h2.43v-3.02c0-2.33,2.03-4.39,4.43-4.39h7.09c1.97,0,3.55-1.62,3.55-3.59v-6.73c0-1.91-1.62-3.35-3.55-3.67-1.18-.2-2.41-.29-3.59-.29-.04,0,0,0,0,0"/>
    </clipPath>
    <linearGradient id="linear-gradient" x1="-963.75" y1="-364.35" x2="-963.48" y2="-364.35" gradientTransform="translate(39890.77 73957.77) rotate(40.98) scale(81.23 81.35) skewX(.55)" gradientUnits="userSpaceOnUse">
      <stop offset="0" stop-color="#5a9fd4"/>
      <stop offset="1" stop-color="#306998"/>
    </linearGradient>
    <clipPath id="clippath-1">
      <path class="cls-15" d="m30.02,82.16c0-.74.6-1.35,1.33-1.35s1.33.6,1.33,1.35-.6,1.36-1.33,1.36-1.33-.61-1.33-1.36m5.39-18.48v3.17c0,2.44-2.07,4.5-4.43,4.5h-7.07c-1.95,0-3.57,1.66-3.57,3.6v6.75c0,1.92,1.68,3.05,3.57,3.6,2.26.66,4.43.78,7.14,0,1.8-.52,3.57-1.56,3.57-3.6v-2.69h-7.14v-1.06h10.58c2.05,0,2.82-1.43,3.53-3.57.74-2.2.71-4.32,0-7.15-.51-2.03-1.48-3.57-3.53-3.57h-2.65Z"/>
    </clipPath>
    <linearGradient id="linear-gradient-2" x1="-1004.26" y1="-359.87" x2="-1003.99" y2="-359.87" gradientTransform="translate(-10808.18 -39293.92) rotate(-124.99) scale(38.19 38.06) skewX(.52)" gradientUnits="userSpaceOnUse">
      <stop offset="0" stop-color="#ffd43b"/>
      <stop offset="1" stop-color="#ffe873"/>
    </linearGradient>
    <clipPath id="clippath-2">
      <rect class="cls-15" x="17.96" y="88.02" width="19.04" height="3.7"/>
    </clipPath>
    <clipPath id="clippath-3">
      <path class="cls-15" d="m36.95,89.91c0,1.02-4.25,1.84-9.5,1.84s-9.5-.82-9.5-1.84,4.25-1.84,9.5-1.84,9.5.82,9.5,1.84"/>
    </clipPath>
    <radialGradient id="radial-gradient" cx="-1076.71" cy="-340.09" fx="-1076.71" fy="-340.09" r=".26" gradientTransform="translate(10441.99 -7411.61) rotate(-90) scale(6.97 30.62)" gradientUnits="userSpaceOnUse">
      <stop offset="0" stop-color="#7f7f7f"/>
      <stop offset="1" stop-color="#000"/>
    </radialGradient>
    <mask id="mask" x="17.95" y="88.02" width="19.06" height="3.74" maskUnits="userSpaceOnUse">
      <rect class="cls-10" x="17.95" y="88.07" width="19" height="3.68"/>
    </mask>
    <radialGradient id="radial-gradient-2" cx="-1076.7" cy="-340.09" fx="-1076.7" fy="-340.09" r=".27" gradientTransform="translate(10441.98 -7411.61) rotate(-90) scale(6.97 30.62)" gradientUnits="userSpaceOnUse">
      <stop offset="0" stop-color="#b8b8b8"/>
      <stop offset="1" stop-color="#7f7f7f"/>
    </radialGradient>
  </defs>
  <g id="Layer_1-2" data-name="Layer 1">
    <g>
      <g>
        <g>
          <g>
            <path class="cls-8" d="m60.07,70.82c0-3.85-1.1-5.83-3.29-5.94-.87-.04-1.73.1-2.56.42-.66.24-1.11.47-1.34.71v9.19c1.4.88,2.65,1.29,3.74,1.23,2.3-.15,3.45-2.02,3.45-5.61m2.81.13c0,1.98-.46,3.62-1.4,4.92-1.04,1.48-2.48,2.24-4.32,2.28-1.39.04-2.82-.39-4.29-1.3v8.44l-2.38-.85v-18.73c.39-.48.89-.89,1.5-1.24,1.42-.83,3.14-1.25,5.16-1.27l.03.03c1.85-.02,3.28.74,4.28,2.28.93,1.41,1.4,3.23,1.4,5.44"/>
            <path class="cls-8" d="m77.2,76.49c0,2.62-.25,4.44-.75,5.45-.5,1.01-1.46,1.82-2.87,2.42-1.14.47-2.38.73-3.71.78l-.37-1.48c1.35-.19,2.3-.39,2.85-.58,1.08-.39,1.83-.98,2.24-1.77.33-.65.49-1.88.49-3.71v-.62c-1.64.75-3.36,1.12-5.15,1.12-1.18,0-2.22-.37-3.12-1.12-1.01-.81-1.51-1.84-1.51-3.08v-9.77l2.38-.81v9.9c0,1.05.34,1.87,1.02,2.44.68.57,1.56.84,2.65.82,1.08-.02,2.24-.44,3.47-1.26v-11.51h2.38v12.8Z"/>
            <path class="cls-8" d="m86.46,77.99c-.28.02-.54.03-.78.03-1.34,0-2.38-.32-3.13-.96-.74-.64-1.12-1.52-1.12-2.65v-9.14h-1.59v-1.59h1.59v-3.94l2.38-.84v4.77h2.64v1.59h-2.64v9.09c-.12.88.12,1.51.59,1.88.41.3,2.06.52,2.06.52v1.24Z"/>
            <path class="cls-8" d="m100.74,77.7h-2.38v-9.09c0-.93-.22-1.72-.66-2.39-.51-.75-1.21-1.13-2.11-1.13-1.1,0-2.47.57-4.11,1.71v10.9h-2.38v-21.74l2.38-.74v9.9c1.53-1.1,3.19-1.64,5-1.64,1.26,0,2.29.42,3.07,1.26.79.84,1.18,1.88,1.18,3.13v9.84Z"/>
            <path class="cls-8" d="m113.13,70.45c0-1.48-.28-2.7-.84-3.67-.67-1.18-1.7-1.8-3.1-1.86-2.58.15-3.87,2-3.87,5.55,0,1.63.27,2.98.81,4.08.69,1.39,1.73,2.08,3.11,2.05,2.59-.02,3.89-2.07,3.89-6.14m2.58.02c0,2.11-.54,3.86-1.61,5.26-1.18,1.57-2.82,2.35-4.9,2.35s-3.68-.79-4.84-2.35c-1.05-1.4-1.58-3.15-1.58-5.26,0-1.98.57-3.64,1.71-5,1.2-1.44,2.79-2.16,4.74-2.16s3.55.72,4.78,2.16c1.14,1.36,1.71,3.02,1.71,5"/>
            <path class="cls-8" d="m129.3,77.7h-2.38v-9.61c0-1.05-.31-1.88-.94-2.47-.63-.59-1.47-.88-2.51-.85-1.11.02-2.16.39-3.16,1.1v11.84h-2.38v-12.13c1.35-.99,2.6-1.63,3.74-1.93,1.07-.28,2.02-.42,2.84-.42.56,0,1.08.05,1.58.16.92.21,1.68.61,2.25,1.19.65.64.97,1.42.97,2.32v10.8Z"/>
            <g class="cls-12">
              <polygon class="cls-18" points="1.75 68.77 25.12 89.07 45.21 65.49 21.84 45.18 1.75 68.77"/>
            </g>
            <g class="cls-7">
              <polygon class="cls-2" points="52.73 78.64 34.95 53.25 9.83 71.17 27.61 96.57 52.73 78.64"/>
            </g>
          </g>
          <path class="cls-8" d="m133.8,61.57h.53v-2.64h.79v-.26h-2.38v.26h1.06v2.64Zm1.85,0h.26v-2.37l.72,2.37h.37l.75-2.36v2.36h.53v-2.91h-.5l-.86,2.49-.73-2.49h-.56v2.91"/>
          <g class="cls-6">
            <g class="cls-4">
              <g class="cls-16">
                <g class="cls-17">
                  <rect class="cls-13" x="17.96" y="88.02" width="19.04" height="3.7"/>
                </g>
              </g>
            </g>
          </g>
        </g>
        <g>
          <path class="cls-19" d="m282.92,106.76c.99-1.63,1.54-3.49,1.6-5.4v-60.38c-.07-1.91-.62-3.77-1.6-5.4l-61.63,35.59,61.63,35.59Z"/>
          <path class="cls-11" d="m226.36,141.04l52.28-30.19c1.62-1.01,2.95-2.42,3.87-4.09l-61.63-35.59-61.63,35.59c.92,1.67,2.25,3.08,3.87,4.09l52.28,30.19c3.45,1.74,7.52,1.74,10.97,0Z"/>
          <path class="cls-1" d="m282.87,35.58c-.92-1.67-2.25-3.08-3.87-4.09L226.72,1.3c-3.44-1.74-7.51-1.74-10.95,0l-52.28,30.19c-3.23,2.11-5.27,5.63-5.48,9.49v60.38c.07,1.91.62,3.77,1.6,5.4l61.63-35.59,61.63-35.59Z"/>
          <path class="cls-3" d="m220.88,113.35c-23.29,0-42.18-18.87-42.18-42.17,0-23.29,18.87-42.18,42.17-42.18,15.07,0,29,8.04,36.53,21.09l-18.25,10.54c-5.82-10.09-18.72-13.54-28.81-7.72-10.09,5.82-13.54,18.72-7.72,28.81,5.82,10.09,18.72,13.54,28.81,7.72,3.21-1.85,5.87-4.51,7.72-7.72l18.25,10.54c-7.55,13.02-21.46,21.06-36.52,21.09Z"/>
          <polygon class="cls-3" points="263.43 69.41 258.75 69.41 258.75 64.73 254.06 64.73 254.06 69.41 249.38 69.41 249.38 74.1 254.06 74.1 254.06 78.79 258.75 78.79 258.75 74.1 263.43 74.1 263.43 69.41"/>
          <polygon class="cls-3" points="281.01 69.41 276.32 69.41 276.32 64.73 271.63 64.73 271.63 69.41 266.95 69.41 266.95 74.1 271.63 74.1 271.63 78.79 276.32 78.79 276.32 74.1 281.01 74.1 281.01 69.41"/>
        </g>
      </g>
      <g>
        <rect class="cls-9" x="2" y="182.41" width="314.83" height="165.92" rx="43.31" ry="43.31"/>
        <g>
          <rect class="cls-20" x="24.93" y="203.02" width="123.67" height="120.57" rx="21.9" ry="21.9"/>
          <path class="cls-5" d="m84.73,275.67h-19.25l-3.91,12.13c-.11.46-.53.77-1,.75h-9.75c-.56,0-.75-.31-.59-.92l16.68-48.03c.17-.5.34-1.07.52-1.71.22-1.11.33-2.24.33-3.38-.04-.28.16-.55.44-.59.05,0,.1,0,.14,0h13.18c.39,0,.61.14.66.42l18.76,52.86c.16.55,0,.83-.51.83h-10.84c-.37.04-.71-.2-.8-.56l-4.07-11.81Zm-16.52-10.82h13.2c-.35-1.11-.74-2.37-1.17-3.76-.43-1.39-.91-2.88-1.42-4.47l-1.51-4.76c-.5-1.59-.96-3.12-1.38-4.59-.42-1.47-.79-2.82-1.13-4.05h-.08c-.47,2.26-1.06,4.49-1.75,6.68-.78,2.51-1.58,5.07-2.38,7.69-.81,2.62-1.6,5.04-2.38,7.27h0Z"/>
          <path class="cls-5" d="m112.18,242.74c-1.71.07-3.37-.6-4.56-1.82-1.19-1.28-1.81-2.98-1.74-4.73-.06-1.73.62-3.41,1.87-4.61,1.24-1.19,2.89-1.83,4.61-1.78,1.99,0,3.56.59,4.69,1.78,1.16,1.25,1.77,2.91,1.7,4.61.07,1.75-.57,3.46-1.78,4.73-1.27,1.25-3,1.91-4.78,1.82Zm-5.84,44.47v-39.65c0-.51.22-.75.65-.75h10.03c.44,0,.65.25.65.75v39.65c0,.55-.22.83-.65.83h-9.95c-.49,0-.73-.28-.73-.83h0Z"/>
        </g>
        <g>
          <path class="cls-14" d="m190.04,203.53h79.93c12.08,0,21.87,9.82,21.87,21.93v76.72c0,12.11-9.79,21.93-21.87,21.93h-79.93c-12.08,0-21.87-9.82-21.87-21.93v-76.72c0-12.11,9.79-21.93,21.87-21.93Z"/>
          <path class="cls-21" d="m195.97,288.2v-53.08c0-.39.17-.57.51-.57.9,0,1.73,0,2.95-.04l4-.09,4.55-.1c1.6-.03,3.18-.04,4.75-.04,4.26,0,7.85.53,10.77,1.58,2.63.88,5.03,2.33,7.02,4.24,1.69,1.66,2.99,3.66,3.83,5.86.78,2.15,1.17,4.41,1.15,6.69,0,4.43-1.04,8.09-3.11,10.97-2.09,2.88-5.03,5.07-8.41,6.26-3.53,1.3-7.46,1.74-11.78,1.74-1.23,0-2.1-.01-2.61-.04-.51-.03-1.26-.04-2.27-.04v16.57c.05.36-.2.69-.57.75-.06,0-.12,0-.19,0h-10c-.39.02-.59-.2-.59-.65Zm11.35-44.05v17.31c.72.06,1.38.09,1.99.09h2.73c2.01,0,4.01-.33,5.92-.95,1.64-.49,3.11-1.44,4.23-2.74,1.08-1.27,1.62-3.05,1.62-5.32.04-1.6-.38-3.18-1.2-4.55-.87-1.33-2.13-2.36-3.6-2.95-1.93-.75-3.98-1.11-6.05-1.04-1.33,0-2.5.01-3.52.04-1.02.03-1.72.07-2.11.13v-.02Z"/>
          <path class="cls-21" d="m267.05,258.39c-1.57-.81-3.24-1.4-4.96-1.76-1.9-.44-3.85-.66-5.8-.67-1.06-.03-2.11.1-3.13.38-.65.15-1.23.52-1.63,1.05-.27.42-.42.92-.42,1.42.02.49.19.96.5,1.34.49.57,1.08,1.04,1.75,1.38,1.19.64,2.42,1.22,3.67,1.72,2.8.94,5.47,2.21,7.97,3.8,1.7,1.07,3.1,2.55,4.09,4.31.83,1.66,1.24,3.5,1.21,5.35.04,2.44-.65,4.84-2,6.87-1.45,2.07-3.46,3.68-5.8,4.64-2.53,1.11-5.66,1.67-9.38,1.67-2.37.02-4.73-.2-7.05-.67-1.83-.34-3.6-.9-5.29-1.67-.37-.2-.59-.59-.57-1v-9.01c-.02-.18.06-.36.21-.46.15-.08.33-.07.46.04,1.99,1.18,4.14,2.05,6.4,2.56,1.99.5,4.03.77,6.09.8,1.95,0,3.38-.25,4.29-.75.85-.39,1.39-1.24,1.38-2.18-.07-.85-.53-1.62-1.25-2.09-.83-.67-2.53-1.48-5.09-2.43-2.62-.91-5.1-2.18-7.38-3.76-1.63-1.14-2.97-2.64-3.92-4.39-.82-1.65-1.24-3.47-1.21-5.31,0-2.22.6-4.4,1.75-6.3,1.31-2.08,3.19-3.73,5.42-4.76,2.44-1.23,5.5-1.84,9.17-1.84,2.15-.02,4.29.14,6.42.46,1.54.2,3.04.6,4.47,1.21.23.06.42.23.5.46.06.2.09.42.09.63v8.44c.01.2-.09.39-.25.5-.23.12-.49.12-.72,0Z"/>
        </g>
      </g>
    </g>
  </g>
</svg>