<?xml version="1.0" encoding="UTF-8"?>
<svg id="Layer_2" data-name="Layer 2" xmlns="http://www.w3.org/2000/svg" viewBox="0 0 40.75 40.75">
  <defs>
    <style>
      .cls-1 {
        fill: #fff;
      }

      .cls-2 {
        fill: #42210b;
      }
    </style>
  </defs>
  <g id="Layer_1-2" data-name="Layer 1">
    <g>
      <circle class="cls-2" cx="20.37" cy="20.37" r="20.37"/>
      <path class="cls-1" d="m31.63,13.39c-.71.32-1.49.51-2.25.64.36-.06.89-.71,1.1-.98.32-.4.59-.86.75-1.36.02-.04.03-.09,0-.12-.05-.02-.08,0-.12.01-.85.46-1.73.79-2.66,1.02-.08.02-.14,0-.18-.05-.08-.09-.15-.17-.23-.24-.39-.33-.81-.6-1.29-.79-.62-.25-1.31-.36-1.98-.32-.65.04-1.3.23-1.88.53-.58.3-1.1.73-1.51,1.24-.43.53-.74,1.15-.9,1.81-.16.64-.14,1.27-.05,1.91.01.11,0,.12-.09.11-3.66-.54-6.69-1.85-9.15-4.66-.11-.12-.16-.12-.25,0-1.08,1.62-.55,4.21.79,5.48.18.17.36.34.56.5-.07.01-.97-.08-1.77-.5-.11-.07-.16-.03-.17.09,0,.17,0,.34.03.52.21,1.64,1.34,3.15,2.89,3.74.18.08.39.15.59.18-.35.08-.72.13-1.73.05-.13-.02-.17.04-.13.16.76,2.08,2.41,2.7,3.64,3.05.16.03.33.03.5.07-.01.01-.02.01-.03.03-.41.62-1.83,1.09-2.49,1.32-1.2.42-2.51.61-3.78.48-.2-.03-.25-.03-.3,0-.06.03,0,.08.06.14.26.17.52.32.79.47.81.43,1.65.77,2.52,1.01,4.54,1.25,9.64.33,13.05-3.05,2.67-2.66,3.61-6.32,3.61-9.99,0-.14.17-.22.27-.3.7-.52,1.26-1.15,1.78-1.85.12-.16.12-.3.12-.35v-.02c0-.06,0-.04-.09,0Z"/>
    </g>
  </g>
</svg>