<?xml version="1.0" encoding="UTF-8"?>
<svg id="Layer_2" data-name="Layer 2" xmlns="http://www.w3.org/2000/svg" viewBox="0 0 123.67 120.57">
  <defs>
    <style>
      .cls-1 {
        fill: #fff;
      }

      .cls-2 {
        fill: #3178c6;
      }
    </style>
  </defs>
  <g id="Layer_1-2" data-name="Layer 1">
    <g>
      <path class="cls-2" d="m12.08,0h99.51c6.67,0,12.08,5.27,12.08,11.78v97.02c0,6.5-5.41,11.78-12.08,11.78H12.08c-6.67,0-12.08-5.27-12.08-11.78V11.78C0,5.27,5.41,0,12.08,0Z"/>
      <path class="cls-2" d="m12.08,0h99.51c6.67,0,12.08,5.27,12.08,11.78v97.02c0,6.5-5.41,11.78-12.08,11.78H12.08c-6.67,0-12.08-5.27-12.08-11.78V11.78C0,5.27,5.41,0,12.08,0Z"/>
      <path class="cls-1" d="m76.67,95.97v11.8c2.21,1.06,4.56,1.81,6.99,2.22,2.8.5,5.65.75,8.5.74,2.78.01,5.55-.26,8.26-.81,2.44-.47,4.77-1.38,6.88-2.68,1.94-1.21,3.55-2.87,4.68-4.83,2.01-4.09,2.27-8.79.74-13.07-.65-1.6-1.62-3.06-2.84-4.3-1.32-1.32-2.82-2.45-4.45-3.38-1.88-1.07-3.84-2.02-5.85-2.83-1.59-.64-3.02-1.26-4.28-1.86-1.13-.52-2.2-1.14-3.22-1.85-.8-.55-1.49-1.22-2.05-2.01-.49-.72-.74-1.56-.72-2.42-.01-.78.21-1.54.64-2.2.47-.69,1.09-1.26,1.82-1.68.89-.51,1.86-.88,2.88-1.09,1.25-.27,2.52-.4,3.79-.39,1.07,0,2.14.08,3.2.22,1.14.15,2.28.38,3.39.68,1.13.31,2.23.69,3.31,1.16,1.04.45,2.04.99,2.98,1.61v-11.04c-1.95-.72-3.98-1.23-6.04-1.53-2.49-.35-5-.52-7.52-.5-2.75-.01-5.5.29-8.18.9-2.42.54-4.73,1.5-6.8,2.83-1.93,1.25-3.52,2.92-4.64,4.89-1.19,2.19-1.77,4.63-1.7,7.11-.09,3.27,1.02,6.46,3.12,9.01,2.08,2.49,5.25,4.59,9.5,6.32,1.65.67,3.21,1.32,4.66,1.96,1.3.56,2.55,1.23,3.74,1.99.95.61,1.79,1.37,2.48,2.26.6.8.92,1.78.91,2.77,0,.75-.19,1.48-.57,2.13-.42.7-1.02,1.28-1.73,1.7-.89.53-1.86.91-2.88,1.13-1.32.29-2.68.42-4.03.4-2.66,0-5.31-.46-7.81-1.35-2.62-.92-5.04-2.28-7.16-4.03h.04Zm-20.6-29.26h15.66s0-9.65,0-9.65H28.86s0,9.65,0,9.65h14.84s0,43.41,0,43.41h12.37s0-43.41,0-43.41Z"/>
    </g>
  </g>
</svg>