<?xml version="1.0" encoding="UTF-8"?>
<svg id="Layer_2" data-name="Layer 2" xmlns="http://www.w3.org/2000/svg" viewBox="0 0 40.75 40.75">
  <defs>
    <style>
      .cls-1 {
        fill: #fff;
      }

      .cls-2 {
        fill: #42210b;
      }
    </style>
  </defs>
  <g id="Layer_1-2" data-name="Layer 1">
    <g>
      <path class="cls-2" d="m40.75,20.37C40.75,9.12,31.62,0,20.37,0S0,9.12,0,20.37c0,10.17,7.45,18.6,17.19,20.12v-14.24h-5.17v-5.89h5.17v-4.49c0-5.11,3.04-7.93,7.69-7.93,2.23,0,4.56.4,4.56.4v5.01h-2.57c-2.53,0-3.32,1.57-3.32,3.18v3.82h5.65l-.9,5.89h-4.75v14.24c9.74-1.53,17.19-9.96,17.19-20.12Z"/>
      <path class="cls-1" d="m28.3,26.26l.9-5.89h-5.65v-3.82c0-1.61.79-3.18,3.32-3.18h2.57v-5.01s-2.33-.4-4.56-.4c-4.65,0-7.69,2.82-7.69,7.93v4.49h-5.17v5.89h5.17v14.24c1.04.16,2.1.25,3.18.25s2.15-.08,3.18-.25v-14.24h4.75Z"/>
    </g>
  </g>
</svg>