<?xml version="1.0" encoding="UTF-8"?>
<svg id="Layer_2" data-name="Layer 2" xmlns="http://www.w3.org/2000/svg" viewBox="0 0 40.1 40.1">
  <defs>
    <style>
      .cls-1 {
        fill: #fff;
      }

      .cls-2 {
        fill: #dcdee2;
      }

      .cls-3 {
        fill: #42210b;
      }

      .cls-4 {
        fill: #efefef;
      }
    </style>
  </defs>
  <g id="Layer_1-2" data-name="Layer 1">
    <g>
      <path class="cls-3" d="m0,20.05c0-2.71.53-5.33,1.58-7.8,1.01-2.39,2.46-4.53,4.3-6.37,1.84-1.84,3.98-3.29,6.37-4.3,2.47-1.05,5.1-1.58,7.8-1.58s5.33.53,7.8,1.58c2.39,1.01,4.53,2.46,6.37,4.3,1.84,1.84,3.29,3.99,4.3,6.37,1.05,2.47,1.58,5.1,1.58,7.8s-.53,5.33-1.58,7.8c-1.01,2.39-2.46,4.53-4.3,6.37-1.84,1.84-3.99,3.29-6.37,4.3-2.47,1.05-5.1,1.58-7.8,1.58s-5.33-.53-7.8-1.58c-2.39-1.01-4.53-2.46-6.37-4.3-1.84-1.84-3.29-3.98-4.3-6.37-1.05-2.47-1.58-5.1-1.58-7.8Z"/>
      <path class="cls-4" d="m9.29,27.83c.46.48,1.11.78,1.83.78h19.19c.72,0,1.37-.3,1.83-.78.43-.45.7-1.07.7-1.75v-12.08c0-.68-.27-1.29-.7-1.75-.46-.48-1.11-.78-1.82-.78H11.11c-.72,0-1.37.3-1.83.78-.43.45-.7,1.07-.7,1.75v12.08c0,.68.27,1.29.7,1.75Z"/>
      <path class="cls-1" d="m9.27,27.83l8.89-7.79,1.5-1.31c.59-.52,1.47-.52,2.06,0l1.5,1.31,8.89,7.79c-.46.48-1.11.78-1.83.78H11.1c-.72,0-1.37-.3-1.83-.78Z"/>
      <path class="cls-2" d="m9.27,12.26c.46-.48,1.11-.78,1.83-.78h19.19c.72,0,1.37.3,1.82.78l-8.89,7.79-1.5-1.31c-.59-.52-1.47-.52-2.06,0l-1.5,1.31-8.89-7.79Z"/>
    </g>
  </g>
</svg>